<svg id="animated-shape" xmlns="http://www.w3.org/2000/svg" xmlns:xlink="http://www.w3.org/1999/xlink" viewBox="0 0 1920 1080" shape-rendering="geometricPrecision" text-rendering="geometricPrecision"><defs><filter id="animated-shape-rect1-filter" x="-400%" width="600%" y="-400%" height="600%"><feColorMatrix id="animated-shape-rect1-filter-hue-rotate-0" type="hueRotate" values="360" result="result"/></filter><filter id="animated-shape-path3-filter" x="-400%" width="600%" y="-400%" height="600%"><feColorMatrix id="animated-shape-path3-filter-hue-rotate-0" type="hueRotate" values="360" result="result"/></filter></defs><g id="animated-shape-g1" mask="url(#animated-shape-svgjsmask1414)"><g id="animated-shape-g2"><rect id="animated-shape-rect1" width="1920" height="1107.829928" rx="0" ry="0" transform="matrix(1 0 0 1 0.00000000000068 -27.82992799999988)" filter="url(#animated-shape-rect1-filter)" fill="rgb(255,255,255)" stroke="none" stroke-width="1"/><path id="animated-shape-path1" d="M-71.928240,4.508922C-58.845065,4.327014,-48.197434,-0.518791,-41.049210,-6.822193C-32.981131,-13.936808,-25.899962,-22.556373,-32.678263,-30.102600C-39.848989,-38.085615,-56.304214,-41.359451,-71.928240,-41.200054C-87.036536,-41.046092,-101.583649,-36.947587,-108.838979,-29.326319C-115.843644,-21.968211,-113.259591,-13.031664,-105.507881,-5.925588C-98.261552,0.716789,-85.560899,4.698593,-71.928240,4.508922" transform="matrix(1 0 0 1 1742.36770092500024 309.56528216000009)" fill="rgb(231,48,92)" stroke="none" stroke-width="1"/><path id="animated-shape-path2" d="M523.637694,1029.564192C538.657953,1029.500851,551.825271,1021.402655,558.964495,1010.144222C565.756583,999.433229,564.394606,986.775255,557.546450,976.090222C550.361152,964.879556,538.630894,954.988268,523.637694,955.025234C508.700318,955.061993,497.289894,965.117555,490.066811,976.256364C483.121632,986.966527,480.908877,999.663129,487.699014,1010.445148C494.855547,1021.808873,508.500422,1029.628157,523.637694,1029.564192" transform="matrix(1 0 0 1 -184.87023800000009 3.11946112499970)" fill="rgb(231,48,92)" stroke="none" stroke-width="1"/><path id="animated-shape-path3" d="M1641.695472,894.498652C1677.668374,894.847061,1725.291129,880.830890,1723.820016,852.053389C1722.387057,824.022233,1756.394855,800.798633,1739.484540,776.395510C1721.112710,749.883044,1682.439124,732.408727,1641.695472,733.539952C1603.121747,734.610899,1572.959593,756.225541,1556.018934,781.489440C1541.120753,803.707670,1546.859778,828.852218,1563.270231,850.497803C1580.366477,873.048369,1606.331672,894.155868,1641.695472,894.498652" transform="matrix(-1 0 0 1 3419.36046138281472 79.54215515499970)" filter="url(#animated-shape-path3-filter)" fill="rgb(231,48,92)" stroke="none" stroke-width="1"/><path id="animated-shape-path4" d="M-21.828000,135.462000C7.244000,134.759000,30.904000,116.032000,46.788000,91.672000C64.716000,64.177000,80.451000,30.866000,65.389000,1.703000C49.455000,-29.148000,12.890000,-41.800000,-21.828000,-41.184000C-55.400000,-40.589000,-87.725000,-24.750000,-103.847000,4.703000C-119.412000,33.139000,-113.670000,67.675000,-96.445000,95.137000C-80.343000,120.807000,-52.121000,136.195000,-21.828000,135.462000" transform="matrix(1 0 0 1 47.70844800000000 5.96355600000001)" fill="rgb(231,48,92)" stroke="none" stroke-width="1"/><path id="animated-shape-path5" d="M-81.253391,37.758111C-71.146034,37.443898,-62.920248,29.073661,-57.397915,18.185694C-51.164952,5.896505,-45.694422,-8.992209,-50.930973,-22.026929C-56.470689,-35.816119,-69.183110,-41.471069,-81.253391,-41.195741C-92.925247,-40.929799,-104.163562,-33.850386,-109.768640,-20.686047C-115.180067,-7.976267,-113.183767,7.459974,-107.195213,19.734414C-101.597089,31.207900,-91.785249,38.085734,-81.253391,37.758111" transform="matrix(1 0 0 1 1774.41387784000017 212.70016500000020)" fill="rgb(231,48,92)" stroke="none" stroke-width="1"/><path id="animated-shape-path6" d="M-66.509573,37.760441C-51.696994,37.514614,-39.641902,30.966085,-31.548788,22.447788C-22.414228,12.833233,-14.397031,1.184916,-22.071325,-9.012912C-30.189915,-19.801007,-48.820280,-24.225206,-66.509573,-24.009801C-83.614964,-23.801739,-100.084991,-18.263097,-108.299370,-7.963861C-116.229949,1.979747,-113.304322,14.056427,-104.527950,23.659443C-96.323762,32.635825,-81.944269,38.016760,-66.509573,37.760441" transform="matrix(1 0 0 1 1680.49471318000042 123.17807541500025)" fill="rgb(231,48,92)" stroke="none" stroke-width="1"/><path id="animated-shape-path7" d="M-92.046649,21.857495C-85.383722,21.606554,-79.961155,14.921808,-76.320748,6.226319C-72.211881,-3.588232,-68.605622,-15.478848,-72.057638,-25.888804C-75.709506,-36.901305,-84.089732,-41.417533,-92.046649,-41.197648C-99.740919,-40.985258,-107.149391,-35.331405,-110.844346,-24.817931C-114.411643,-14.667483,-113.095651,-2.339594,-109.147903,7.463178C-105.457532,16.626281,-98.989414,22.119145,-92.046649,21.857495" transform="matrix(0.70710678118655 0.70710678118655 -0.70710678118655 0.70710678118655 1770.46378381955014 195.45969553745198)" fill="rgb(231,48,92)" stroke="none" stroke-width="1"/><path id="animated-shape-path8" d="M-91.338601,37.759640C-84.449711,37.490732,-78.843246,30.327377,-75.079380,21.009317C-70.831168,10.492072,-67.102608,-2.249878,-70.671694,-13.405158C-74.447408,-25.206122,-83.111837,-30.045699,-91.338601,-29.810070C-99.293809,-29.582474,-106.953529,-23.523822,-110.773792,-12.257613C-114.462068,-1.380422,-113.101446,11.830109,-109.019817,22.334730C-105.204293,32.153885,-98.516819,38.040023,-91.338601,37.759640" transform="matrix(1 0 0 1 1678.27534710000009 230.59083300000020)" fill="rgb(231,48,92)" stroke="none" stroke-width="1"/></g><mask id="animated-shape-svgjsmask1414" mask-type="luminance"><rect id="animated-shape-rect2" width="1920" height="1080" rx="0" ry="0" fill="rgb(255,255,255)" stroke="none" stroke-width="1"/></mask></g></svg>